Coordinates
version=1
nRows=6
nColumns=63
inDegrees=yes

Units are S.I. units (second, meters, Newtons, ...)
If the header above contains a line with 'inDegrees', this indicates whether rotational values are in degrees (yes) or radians (no).

endheader
time	pelvis_tilt	pelvis_list	pelvis_rotation	pelvis_tx	pelvis_ty	pelvis_tz	hip_flexion_r	hip_adduction_r	hip_rotation_r	knee_angle_r	knee_angle_r_beta	ankle_angle_r	subtalar_angle_r	mtp_angle_r	hip_flexion_l	hip_adduction_l	hip_rotation_l	knee_angle_l	knee_angle_l_beta	ankle_angle_l	subtalar_angle_l	mtp_angle_l	L5_S1_Flex_Ext	L5_S1_Lat_Bending	L5_S1_axial_rotation	L4_L5_Flex_Ext	L4_L5_Lat_Bending	L4_L5_axial_rotation	L3_L4_Flex_Ext	L3_L4_Lat_Bending	L3_L4_axial_rotation	L2_L3_Flex_Ext	L2_L3_Lat_Bending	L2_L3_axial_rotation	L1_L2_Flex_Ext	L1_L2_Lat_Bending	L1_L2_axial_rotation	L1_T12_Flex_Ext	L1_T12_Lat_Bending	L1_T12_axial_rotation	Abs_r3	Abs_r2	Abs_r1	Abs_t1	Abs_t2	neck_flexion	neck_bending	neck_rotation	arm_flex_r	arm_add_r	arm_rot_r	elbow_flex_r	pro_sup_r	wrist_flex_r	wrist_dev_r	arm_flex_l	arm_add_l	arm_rot_l	elbow_flex_l	pro_sup_l	wrist_flex_l	wrist_dev_l
      0.00800000	    -40.44143560	     -4.58800025	     -3.56715826	     -0.14208434	      1.00783432	      0.03773021	    114.45354722	     -2.70203516	     -1.25742696	    117.87612030	      2.05732641	     11.40418937	    -12.45286485	      0.00000000	     76.78754818	     -9.87824608	     -0.78184592	     45.92461030	      0.80153566	     -8.13797572	    -15.38180397	      0.00000000	     -0.05449993	      1.06135480	      0.55974169	     -0.10121182	      1.41160189	      0.59472555	     -0.08953793	      2.58057807	      0.59472555	     -0.06228797	      2.58057807	      0.48977398	     -0.05060863	      2.16431472	      0.45479013	     -0.03114126	      1.64403859	      0.41980627	     -0.38928755	     12.00625782	      3.11311538	      0.00000000	      0.00000000	      0.00000000	      0.00000000	      0.00000000	     72.09857264	    -15.48479682	     43.35322382	     43.01188847	     54.49652553	      0.00000000	      4.89567484	     61.52528381	    -13.18296407	     21.37009472	     40.96279286	     57.39753058	      0.00000000	      4.89567484
      0.01700000	    -40.66072959	     -5.34896217	     -3.94889004	     -0.14245101	      1.00825293	      0.03663285	    116.74597777	     -2.83340135	     -2.17167116	    116.69806404	      2.03676545	     12.01619986	    -12.82533165	      0.00000000	     76.02472281	    -10.62530601	     -0.21737865	     47.80056013	      0.83427716	     -7.14381917	    -16.31331017	      0.00000000	     -0.05547117	      1.19134095	      0.61458047	     -0.10301551	      1.58448347	      0.65299175	     -0.09113359	      2.89662640	      0.65299175	     -0.06339800	      2.89662640	      0.53775791	     -0.05151053	      2.42938247	      0.49934663	     -0.03169623	      1.84538714	      0.46093535	     -0.39622502	     13.47668714	      3.41811221	      0.00000000	      0.00000000	      0.00000000	      0.00000000	      0.00000000	     73.08122844	    -15.22596255	     44.95282018	     42.25754017	     54.72080468	      0.00000000	      4.90392811	     60.62944229	    -13.44809661	     19.68359475	     42.09818593	     57.70328575	      0.00000000	      4.90392811
      0.02500000	    -40.70771965	     -5.29320260	     -3.87139537	     -0.14263776	      1.00852246	      0.03653720	    117.12300697	     -2.77773342	     -2.06078292	    115.87487791	      2.02239814	     12.30538053	    -12.67346186	      0.00000000	     76.13933939	    -10.59036678	     -0.14829204	     49.09782401	      0.85691868	     -7.00873025	    -16.29092506	      0.00000000	     -0.05570195	      1.19507912	      0.61259619	     -0.10344409	      1.58945523	      0.65088345	     -0.09151273	      2.90571538	      0.65088345	     -0.06366175	      2.90571538	      0.53602167	     -0.05172483	      2.43700535	      0.49773440	     -0.03182809	      1.85117756	      0.45944714	     -0.39787344	     13.51897405	      3.40707623	      0.00000000	      0.00000000	      0.00000000	      0.00000000	      0.00000000	     73.14037334	    -15.19696671	     44.92455706	     42.23880093	     54.69754669	      0.00000000	      4.90528675	     60.62218786	    -13.49347551	     19.63138433	     42.07711974	     57.72849211	      0.00000000	      4.90528675
      0.03300000	    -40.77532950	     -5.24771345	     -3.80662942	     -0.14289979	      1.00891460	      0.03656339	    117.41370007	     -2.66801808	     -1.96340859	    114.74235371	      2.00263186	     12.65405118	    -12.45103486	      0.00000000	     76.40425736	    -10.58283808	      0.00078675	     50.76832882	      0.88607449	     -7.00501764	    -16.26813371	      0.00000000	     -0.05593461	      1.20040016	      0.61486280	     -0.10387616	      1.59653222	      0.65329172	     -0.09189497	      2.91865296	      0.65329172	     -0.06392766	      2.91865296	      0.53800495	     -0.05194088	      2.44785601	      0.49957602	     -0.03196104	      1.85941985	      0.46114710	     -0.39953531	     13.57916672	      3.41968242	      0.00000000	      0.00000000	      0.00000000	      0.00000000	      0.00000000	     73.20526479	    -15.18642631	     44.89226680	     42.24478934	     54.66852738	      0.00000000	      4.90661433	     60.63097908	    -13.51129821	     19.56824782	     42.02799641	     57.73790950	      0.00000000	      4.90661433
      0.04200000	    -40.84351707	     -5.21441939	     -3.75918519	     -0.14315462	      1.00933790	      0.03666856	    117.58623237	     -2.49999280	     -1.88525793	    113.32135547	      1.97783077	     13.03930002	    -12.18868897	      0.00000000	     76.82756823	    -10.58542294	      0.26484736	     52.83927629	      0.92221935	     -7.19584718	    -16.31877502	      0.00000000	     -0.05574684	      1.20811721	      0.62305447	     -0.10352745	      1.60679589	      0.66199537	     -0.09158648	      2.93741618	      0.66199537	     -0.06371306	      2.93741618	      0.54517266	     -0.05176651	      2.46359261	      0.50623175	     -0.03185374	      1.87137356	      0.46729085	     -0.39819408	     13.66646350	      3.46524202	      0.00000000	      0.00000000	      0.00000000	      0.00000000	      0.00000000	     73.24384866	    -15.20351622	     44.85231214	     42.27665756	     54.63872749	      0.00000000	      4.90793590	     60.64728045	    -13.48614949	     19.49677212	     41.94929537	     57.74849817	      0.00000000	      4.90793590
      0.05000000	    -40.96813260	     -5.52633413	     -3.98705142	     -0.14348483	      1.01007114	      0.03700859	    117.45560469	     -2.18573839	     -2.26417193	    111.37990230	      1.94394602	     13.72131660	    -11.64130242	      0.00000000	     77.55444864	    -10.92608830	      0.96744321	     55.28738516	      0.96494691	     -8.23874855	    -16.78014476	      0.00000000	     -0.05664656	      1.26079193	      0.69429541	     -0.10519832	      1.67685327	      0.73768887	     -0.09306463	      3.06548951	      0.73768887	     -0.06474135	      3.06548951	      0.60750848	     -0.05260199	      2.57100691	      0.56411502	     -0.03236784	      1.95296671	      0.52072156	     -0.40462070	     14.26233052	      3.86146277	      0.00000000	      0.00000000	      0.00000000	      0.00000000	      0.00000000	     73.34130345	    -15.39160407	     44.80364322	     42.37766818	     54.60655380	      0.00000000	      4.91079885	     60.64958036	    -13.24592204	     19.32475905	     41.78386771	     57.84216288	      0.00000000	      4.91079885
